<?xml version="1.0" encoding="UTF-8"?>
<svg version="1.1" xmlns="http://www.w3.org/2000/svg" width="32" height="32">
<path d="M0 0 C6.69193816 3.2939592 9.22756862 9.343032 12 16 C12.50265851 18.97185821 12.41293749 20.99145546 12 24 C9.12218415 25.63219407 7.04423803 26.25528532 3.7421875 26.265625 C2.55689453 26.26949219 2.55689453 26.26949219 1.34765625 26.2734375 C0.53167969 26.26570313 -0.28429688 26.25796875 -1.125 26.25 C-1.94871094 26.25773437 -2.77242187 26.26546875 -3.62109375 26.2734375 C-4.40871094 26.27085938 -5.19632813 26.26828125 -6.0078125 26.265625 C-6.72598145 26.26336914 -7.44415039 26.26111328 -8.18408203 26.25878906 C-10 26 -10 26 -12 24 C-12.56308613 18.49125379 -11.32603775 14.558507 -8.8125 9.75 C-8.52052734 9.13898437 -8.22855469 8.52796875 -7.92773438 7.8984375 C-5.91677381 3.93706143 -4.0061612 1.9096727 0 0 Z " fill="#79CBCF" transform="translate(16,3)"/>
<path d="M0 0 C1.07174763 3.65188082 0.76411467 6.26432828 0 10 C0.66 10 1.32 10 2 10 C2 10.66 2 11.32 2 12 C2.99 12.33 3.98 12.66 5 13 C5.66 10.69 6.32 8.38 7 6 C9.59642796 6.34619039 10.71331532 6.66345712 12.4375 8.6875 C13.28037694 12.15266077 11.7537029 14.03219508 10 17 C12.97 17 15.94 17 19 17 C18.67 17.66 18.34 18.32 18 19 C13.94396064 20.35201312 10.18420555 20.18417967 5.9375 20.1875 C4.69516602 20.20586914 4.69516602 20.20586914 3.42773438 20.22460938 C2.63560547 20.22654297 1.84347656 20.22847656 1.02734375 20.23046875 C0.30281006 20.23457764 -0.42172363 20.23868652 -1.16821289 20.24291992 C-3 20 -3 20 -5 18 C-6.01933761 11.15587608 -3.04244665 6.00883212 0 0 Z " fill="#308A91" transform="translate(9,9)"/>
<path d="M0 0 C0.66 0 1.32 0 2 0 C1.835 0.680625 1.67 1.36125 1.5 2.0625 C0.92910941 5.4164822 0.93340977 8.60389805 1 12 C1.66 12.33 2.32 12.66 3 13 C2.67 14.98 2.34 16.96 2 19 C0.68 18.34 -0.64 17.68 -2 17 C-2 16.34 -2 15.68 -2 15 C-2.66 15 -3.32 15 -4 15 C-3.91245449 13.24908981 -3.80426627 11.49920449 -3.6875 9.75 C-3.62949219 8.77546875 -3.57148438 7.8009375 -3.51171875 6.796875 C-2.9490829 3.72170503 -2.15665346 2.23652952 0 0 Z " fill="#4FB1B7" transform="translate(13,4)"/>
<path d="M0 0 C2 2 2 2 2.125 5.625 C2.08375 6.73875 2.0425 7.8525 2 9 C-0.97 9 -3.94 9 -7 9 C-6.1875 6.0625 -6.1875 6.0625 -5 3 C-4.01 2.67 -3.02 2.34 -2 2 C-1.34 2.33 -0.68 2.66 0 3 C0 2.01 0 1.02 0 0 Z " fill="#5EBEC3" transform="translate(26,17)"/>
<path d="M0 0 C4 1 4 1 5.4375 2.6875 C6.28037694 6.15266077 4.7537029 8.03219508 3 11 C5.31 11 7.62 11 10 11 C10 11.33 10 11.66 10 12 C2.25 12.125 2.25 12.125 0 11 C0 7.37 0 3.74 0 0 Z " fill="#44A0A5" transform="translate(16,15)"/>
<path d="M0 0 C2.65298379 1.39630726 4.62365425 2.46969463 6.375 4.9375 C7.10948624 7.3613046 6.84172676 8.64316506 6 11 C5.38125 10.030625 4.7625 9.06125 4.125 8.0625 C2.34321154 4.97164638 2.34321154 4.97164638 0 4 C0 2.68 0 1.36 0 0 Z " fill="#8EDBDC" transform="translate(16,3)"/>
<path d="M0 0 C1.10844919 3.32534757 0.84454356 5.62182575 0 9 C-1.65 8.67 -3.3 8.34 -5 8 C-5.33 6.35 -5.66 4.7 -6 3 C-5.67 3.66 -5.34 4.32 -5 5 C-4.01 5.33 -3.02 5.66 -2 6 C-1.34 4.02 -0.68 2.04 0 0 Z " fill="#2D8087" transform="translate(16,16)"/>
<path d="M0 0 C1.98 0.99 1.98 0.99 4 2 C3.6875 3.875 3.6875 3.875 3 6 C2.01 6.66 1.02 7.32 0 8 C0 5.36 0 2.72 0 0 Z " fill="#5AB3B7" transform="translate(16,15)"/>
</svg>
