<?xml version="1.0" encoding="UTF-8"?>
<svg version="1.1" xmlns="http://www.w3.org/2000/svg" width="16" height="16">
<path d="M0 0 C7.75 -0.125 7.75 -0.125 10 1 C12.00800456 0.71887936 14.01014051 0.38932033 16 0 C15.75 1.875 15.75 1.875 15 4 C13.67532254 4.6837045 12.34136367 5.34964186 11 6 C9.73195434 8.0335948 9.73195434 8.0335948 9 10 C8.01 10 7.02 10 6 10 C6 8.35 6 6.7 6 5 C3.03 4.505 3.03 4.505 0 4 C0 2.68 0 1.36 0 0 Z " fill="#08A1DC" transform="translate(0,1)"/>
<path d="M0 0 C0.60328125 0.08378906 1.2065625 0.16757813 1.828125 0.25390625 C3.02695313 0.40666016 3.02695313 0.40666016 4.25 0.5625 C5.03890625 0.66691406 5.8278125 0.77132813 6.640625 0.87890625 C9.00532874 1.00027349 10.7511037 0.69633257 13 0 C13 1.32 13 2.64 13 4 C8.92809781 6.03595109 6.39758611 6.14719638 2 5 C1.01 4.34 0.02 3.68 -1 3 C-0.67 2.01 -0.34 1.02 0 0 Z " fill="#12396A" transform="translate(1,10)"/>
<path d="M0 0 C2.64 0 5.28 0 8 0 C8.33 0.66 8.66 1.32 9 2 C8.67 2.66 8.34 3.32 8 4 C5.36 4 2.72 4 0 4 C0 2.68 0 1.36 0 0 Z " fill="#F97228" transform="translate(0,1)"/>
</svg>
