<svg xmlns="http://www.w3.org/2000/svg" xmlns:xlink="http://www.w3.org/1999/xlink" id="Livello_1" x="0px" y="0px" viewBox="0 0 2408 341" style="enable-background:new 0 0 2408 341;" xml:space="preserve"><style type="text/css">	.st0{fill:#002C6B;}	.st1{fill:#0092FF;}	.st2{fill:#FF6831;}	.st3{fill:#FFFFFF;}</style><g>	<g>		<g>			<path class="st0" d="M173.4,340.5c-63.9,0-124-24.2-169.9-68.4c-1.9-1.9-1.9-5,0-6.9l34.6-34.6c1.9-1.9,4.9-1.9,6.8-0.1     c34.8,33.2,80.3,51.4,128.6,51.4c48.3,0,93.7-18.2,128.6-51.4c1.9-1.8,4.9-1.7,6.8,0.1l34.6,34.6c1.9,1.9,1.9,5,0,6.9     C297.4,316.2,237.3,340.5,173.4,340.5z"></path>		</g>		<g>			<g>				<path class="st1" d="M197.9,214.9h-48.9c-2.8,0-4.9-2.3-4.9-5c2.6-114.2,95-206.6,209.2-209.2c2.8-0.1,5,2.1,5,4.9v48.9      c0,2.6-2.1,4.8-4.7,4.9c-42.5,1.3-80.8,19.6-108.2,48.5c-25.5,26.9-41.6,62.8-42.8,102.5C202.7,212.8,200.5,214.9,197.9,214.9z"></path>			</g>		</g>		<g>			<path class="st2" d="M146.9,59.2H5c-2.7,0-4.9-2.2-4.9-4.9V5.4c0-2.7,2.2-4.9,4.9-4.9h141.9c2.7,0,4.9,2.2,4.9,4.9v48.9     C151.8,57,149.6,59.2,146.9,59.2z"></path>		</g>	</g>	<g>		<g>			<path class="st3" d="M594.8,255.7c-3.3,0-6.4-1.6-8.3-4.4l-32-46.3h-2.1h-36.6v46.4c0,2.4-1.9,4.3-4.3,4.3H478     c-2.4,0-4.3-1.9-4.3-4.3V78.3c0-2.4,1.9-4.3,4.3-4.3h74.4c16.1,0,30.1,2.7,41.9,8c11.9,5.4,21,13,27.4,22.8     c6.4,9.9,9.6,21.5,9.6,35s-3.2,25.1-9.7,34.9c-6.5,9.8-15.7,17.3-27.6,22.5l36.7,52.6c1.7,2.4,0,5.8-3,5.8H594.8z M578.9,116.4     c-6.6-5.5-16.2-8.2-28.8-8.2h-34.3v63.3h34.3c12.6,0,22.2-2.8,28.8-8.3c6.6-5.5,9.9-13.3,9.9-23.4     C588.7,129.7,585.5,121.9,578.9,116.4z"></path>			<path class="st3" d="M743.2,222.1c4.5-1.7,8.7-4.2,12.7-7.6c1.7-1.4,4.3-1.3,5.8,0.4l16,17.4c1.6,1.7,1.5,4.3-0.1,5.9     c-13,13-31.3,19.6-54.8,19.6c-15.7,0-29.7-3.1-41.8-9.2c-12.1-6.1-21.5-14.7-28-25.6c-6.6-10.9-9.9-23.3-9.9-37.1     c0-13.7,3.2-26,9.7-37c6.5-11,15.4-19.6,26.7-25.7c11.3-6.1,24.1-9.2,38.3-9.2c13.3,0,25.4,2.8,36.3,8.4     c10.9,5.6,19.6,13.8,26.1,24.4c6,9.8,9.2,21.2,9.7,34.2c0.1,2.1-1.4,3.9-3.5,4.3l-99.8,19.3c2.9,6.9,7.6,12.1,13.9,15.6     c6.3,3.5,14.1,5.2,23.2,5.2C731.1,225.3,737.6,224.3,743.2,222.1z M693,154.5c-6.4,6.6-9.8,15.7-10.1,27.3l68-13.2     c-1.9-7.3-5.8-13.1-11.7-17.4c-5.9-4.3-13-6.5-21.3-6.5C707.7,144.6,699.4,147.9,693,154.5z"></path>			<path class="st3" d="M947.6,120.5l-54.9,130.2c-1.3,3-4.3,5-7.6,5h-30.9c-3.3,0-6.3-2-7.6-5l-54.7-130.2     c-0.9-2.1,0.7-4.4,2.9-4.4h32c3,0,5.8,1.8,6.9,4.6l36.8,90.4l38.1-90.5c1.2-2.8,3.9-4.6,6.9-4.6h29.2     C946.9,116.1,948.4,118.4,947.6,120.5z"></path>			<path class="st3" d="M1046.6,222.1c4.5-1.7,8.7-4.2,12.7-7.6c1.7-1.4,4.3-1.3,5.8,0.4l16,17.4c1.6,1.7,1.5,4.3-0.1,5.9     c-13,13-31.3,19.6-54.8,19.6c-15.7,0-29.7-3.1-41.8-9.2c-12.1-6.1-21.5-14.7-28-25.6c-6.6-10.9-9.9-23.3-9.9-37.1     c0-13.7,3.2-26,9.7-37c6.5-11,15.4-19.6,26.7-25.7c11.3-6.1,24.1-9.2,38.3-9.2c13.3,0,25.4,2.8,36.3,8.4     c10.9,5.6,19.6,13.8,26.1,24.4c6,9.8,9.2,21.2,9.7,34.2c0.1,2.1-1.4,3.9-3.5,4.3l-99.8,19.3c2.9,6.9,7.6,12.1,13.9,15.6     c6.3,3.5,14.1,5.2,23.2,5.2C1034.6,225.3,1041,224.3,1046.6,222.1z M996.4,154.5c-6.4,6.6-9.8,15.7-10.1,27.3l68-13.2     c-1.9-7.3-5.8-13.1-11.7-17.4c-5.9-4.3-13-6.5-21.3-6.5C1011.1,144.6,1002.8,147.9,996.4,154.5z"></path>			<path class="st3" d="M1238.2,129.6c10.6,10.4,16,25.8,16,46.2v75.7c0,2.4-1.9,4.3-4.3,4.3h-32c-2.4,0-4.3-1.9-4.3-4.3V182     c0-11.1-2.4-19.3-7.3-24.8c-4.8-5.5-11.9-8.2-21-8.2c-10.2,0-18.3,3.2-24.4,9.5c-6.1,6.3-9.1,15.7-9.1,28.2v64.8     c0,2.4-1.9,4.3-4.3,4.3h-32c-2.4,0-4.3-1.9-4.3-4.3V120.3c0-2.4,1.9-4.3,4.3-4.3h30.2c2.4,0,4.3,1.9,4.3,4.3v12.1     c5.4-5.9,12-10.4,20-13.6c8-3.2,16.7-4.8,26.2-4.8C1213.6,114,1227.6,119.2,1238.2,129.6z"></path>			<path class="st3" d="M1424.8,120.3v131.1c0,2.4-1.9,4.3-4.3,4.3h-30.1c-2.4,0-4.3-1.9-4.3-4.3v-11.8     c-10,12.1-24.6,18.2-43.6,18.2c-13.2,0-25-2.9-35.7-8.8c-10.6-5.9-19-14.3-25-25.2c-6.1-10.9-9.1-23.5-9.1-37.9     c0-14.4,3-27,9.1-37.9c6.1-10.9,14.4-19.3,25-25.2c10.6-5.9,22.5-8.8,35.7-8.8c17.8,0,31.8,5.6,41.8,16.9v-10.5     c0-2.4,1.9-4.3,4.3-4.3h32C1422.8,116.1,1424.8,118,1424.8,120.3z M1374.9,214c6.8-7,10.1-16.4,10.1-28.2     c0-11.8-3.4-21.2-10.1-28.2c-6.7-7-15.2-10.5-25.4-10.5c-10.4,0-18.9,3.5-25.7,10.5c-6.7,7-10.1,16.4-10.1,28.2     c0,11.8,3.4,21.2,10.1,28.2c6.7,7,15.3,10.5,25.7,10.5C1359.7,224.6,1368.2,221.1,1374.9,214z"></path>			<path class="st3" d="M1579.6,129.6c10.6,10.4,16,25.8,16,46.2v75.7c0,2.4-1.9,4.3-4.3,4.3h-32c-2.4,0-4.3-1.9-4.3-4.3V182     c0-11.1-2.4-19.3-7.3-24.8c-4.8-5.5-11.9-8.2-21-8.2c-10.2,0-18.3,3.2-24.4,9.5c-6.1,6.3-9.1,15.7-9.1,28.2v64.8     c0,2.4-1.9,4.3-4.3,4.3h-32c-2.4,0-4.3-1.9-4.3-4.3V120.3c0-2.4,1.9-4.3,4.3-4.3h30.2c2.4,0,4.3,1.9,4.3,4.3v12.1     c5.4-5.9,12-10.4,20-13.6c8-3.2,16.7-4.8,26.2-4.8C1555,114,1569,119.2,1579.6,129.6z"></path>		</g>		<g>			<path class="st3" d="M2175.5,120.5l-54.9,130.2c-1.3,3-4.3,5-7.6,5h-30.9c-3.3,0-6.3-2-7.6-5l-54.7-130.2     c-0.9-2.1,0.7-4.4,2.9-4.4h32c3,0,5.8,1.8,6.9,4.6l36.8,90.4l38.1-90.5c1.2-2.8,3.9-4.6,6.9-4.6h29.2     C2174.9,116.1,2176.4,118.4,2175.5,120.5z"></path>			<path class="st3" d="M1655.1,108.3h-53.9c-2.4,0-4.3-1.9-4.3-4.3V78.3c0-2.4,1.9-4.3,4.3-4.3h149.8c2.4,0,4.3,1.9,4.3,4.3V104     c0,2.4-1.9,4.3-4.3,4.3h-53.9v143.2c0,2.4-1.9,4.3-4.3,4.3h-33.5c-2.4,0-4.3-1.9-4.3-4.3V108.3z"></path>			<path class="st3" d="M1817.8,119.2c7-3,15-4.7,23.9-5.1c2.4-0.1,4.5,1.8,4.5,4.3v28.4c0,2.5-2.1,4.4-4.5,4.3     c-2.1-0.1-3.6-0.2-4.6-0.2c-11.6,0-20.7,3.2-27.3,9.7c-6.6,6.5-9.9,16.2-9.9,29.2v61.7c0,2.4-1.9,4.3-4.3,4.3h-32     c-2.4,0-4.3-1.9-4.3-4.3V120.3c0-2.4,1.9-4.3,4.3-4.3h30.2c2.4,0,4.3,1.9,4.3,4.3v14.2C1803,127.7,1809.5,122.6,1817.8,119.2z"></path>			<path class="st3" d="M2005.6,120.3v131.1c0,2.4-1.9,4.3-4.3,4.3h-30.1c-2.4,0-4.3-1.9-4.3-4.3v-11.8     c-10,12.1-24.6,18.2-43.6,18.2c-13.2,0-25-2.9-35.7-8.8c-10.6-5.9-19-14.3-25-25.2c-6.1-10.9-9.1-23.5-9.1-37.9     c0-14.4,3-27,9.1-37.9c6.1-10.9,14.4-19.3,25-25.2c10.6-5.9,22.5-8.8,35.7-8.8c17.8,0,31.8,5.6,41.8,16.9v-10.5     c0-2.4,1.9-4.3,4.3-4.3h32C2003.7,116.1,2005.6,118,2005.6,120.3z M1955.7,214c6.8-7,10.1-16.4,10.1-28.2     c0-11.8-3.4-21.2-10.1-28.2c-6.7-7-15.2-10.5-25.4-10.5c-10.4,0-18.9,3.5-25.7,10.5c-6.7,7-10.1,16.4-10.1,28.2     c0,11.8,3.4,21.2,10.1,28.2c6.7,7,15.3,10.5,25.7,10.5C1940.5,224.6,1949,221.1,1955.7,214z"></path>			<path class="st3" d="M2274.6,222.1c4.5-1.7,8.7-4.2,12.7-7.6c1.7-1.4,4.3-1.3,5.8,0.4l16,17.4c1.6,1.7,1.5,4.3-0.1,5.9     c-13,13-31.3,19.6-54.8,19.6c-15.7,0-29.7-3.1-41.8-9.2c-12.1-6.1-21.5-14.7-28-25.6c-6.6-10.9-9.9-23.3-9.9-37.1     c0-13.7,3.2-26,9.7-37c6.5-11,15.4-19.6,26.7-25.7c11.3-6.1,24.1-9.2,38.3-9.2c13.3,0,25.4,2.8,36.3,8.4     c10.9,5.6,19.6,13.8,26.1,24.4c6,9.8,9.2,21.2,9.7,34.2c0.1,2.1-1.4,3.9-3.5,4.3l-99.8,19.3c2.9,6.9,7.6,12.1,13.9,15.6     c6.3,3.5,14.1,5.2,23.2,5.2C2262.6,225.3,2269,224.3,2274.6,222.1z M2224.4,154.5c-6.4,6.6-9.8,15.7-10.1,27.3l68-13.2     c-1.9-7.3-5.8-13.1-11.7-17.4c-5.9-4.3-13-6.5-21.3-6.5C2239.1,144.6,2230.8,147.9,2224.4,154.5z"></path>			<path class="st3" d="M2350.2,245.2c-8.8-8.4-13.2-20.3-13.2-35.7V67.4c0-2.4,1.9-4.3,4.3-4.3h32c2.4,0,4.3,1.9,4.3,4.3v139.8     c0,5.9,1.5,10.4,4.5,13.6c3,3.2,7.3,4.8,12.8,4.8c2.1,0,4.2-0.3,6.4-0.8l1.2-0.3c2-0.5,4,1,4.1,3l1.3,23c0.1,2.3-1.4,4.4-3.6,4.9     c-5.6,1.5-11.3,2.2-17.2,2.2C2371.3,257.8,2359,253.6,2350.2,245.2z"></path>		</g>	</g></g></svg>